<svg version="1.1" xmlns="http://www.w3.org/2000/svg" xmlns:xlink="http://www.w3.org/1999/xlink" width="932" height="702" viewBox="0 0 932 702"><defs/><g transform="matrix(1,0,0,1,0,0)"><g><g><g><path fill="none" stroke="#d3d3d3" paint-order="fill stroke markers" d=" M 0 0 L 1200 0" stroke-miterlimit="10" stroke-opacity="0.8" stroke-dasharray="5"/></g><g><path fill="none" stroke="#d3d3d3" paint-order="fill stroke markers" d=" M 0 0 L 0 800" stroke-miterlimit="10" stroke-opacity="0.8" stroke-dasharray="5"/></g></g><g id="_385738E9-2B44-489A-BB50-5B9E8D1EAF45" transform="matrix(1,0,0,1,456.29906542056074,451)"><g><path fill="none" stroke="none"/></g><g transform="matrix(0.9345794392523364,0,0,0.8771929824561403,0,0)"><g transform="matrix(1,0,0,1,0,0)"><path fill="none" stroke="#000000" id="_385738E9-2B44-489A-BB50-5B9E8D1EAF45?shapeType=BORDER&amp;renderType=STROKE" paint-order="fill stroke markers" d=" M 0 0 M 1.5 30 C 1.5 14.3 14.3 1.5 30 1.5 L 80 1.5 C 95.7 1.5 108.5 14.3 108.5 30 C 108.5 45.7 95.7 58.5 80 58.5 L 30 58.5 C 14.3 58.5 1.5 45.7 1.5 30 Z" stroke-miterlimit="10" stroke-width="1.5" stroke-dasharray=""/></g></g><g transform="matrix(1,0,0,1,20.91876983642578,18.5)"><text fill="#000000" stroke="none" font-family="Open Sans" font-size="10pt" font-style="normal" font-weight="normal" text-decoration="normal" x="29.08123016357422" y="10.4" text-anchor="middle" dominant-baseline="alphabetic">Applicant</text></g></g><g transform="matrix(1,0,0,1,456.29906542056074,451)"/><g id="_F8BF03A6-8C58-4661-A94E-5638BE3FE7A1" transform="matrix(1,0,0,1,256,344)"><g><path fill="none" stroke="none"/></g><g transform="matrix(1,0,0,1,0,0)"><path fill="none" stroke="#000000" id="_F8BF03A6-8C58-4661-A94E-5638BE3FE7A1?shapeType=BORDER&amp;renderType=STROKE" paint-order="fill stroke markers" d=" M 0 0 L 100 0 L 100 50 L 0 50 L 0 0 Z Z" stroke-miterlimit="10" stroke-width="1.5" stroke-dasharray=""/></g><g transform="matrix(1,0,0,1,10.449409484863281,18.5)"><text fill="#000000" stroke="none" font-family="Open Sans" font-size="10pt" font-style="normal" font-weight="normal" text-decoration="normal" x="39.55059051513672" y="10.4" text-anchor="middle" dominant-baseline="alphabetic">Interest Rate</text></g></g><g transform="matrix(1,0,0,1,256,344)"/><g id="_3E03A515-246C-4B72-A50D-C9933B12EF56" transform="matrix(1,0,0,1,431,31)"><g><path fill="none" stroke="none"/></g><g transform="matrix(1,0,0,1,0,0)"><path fill="none" stroke="#000000" id="_3E03A515-246C-4B72-A50D-C9933B12EF56?shapeType=BORDER&amp;renderType=STROKE" paint-order="fill stroke markers" d=" M 0 0 L 100 0 L 100 50 L 0 50 L 0 0 Z Z" stroke-miterlimit="10" stroke-width="1.5" stroke-dasharray=""/></g><g transform="matrix(1,0,0,1,10.332237243652344,18.5)"><text fill="#000000" stroke="none" font-family="Open Sans" font-size="10pt" font-style="normal" font-weight="normal" text-decoration="normal" x="39.667762756347656" y="10.4" text-anchor="middle" dominant-baseline="alphabetic">Pre Approval</text></g></g><g transform="matrix(1,0,0,1,431,31)"/><g id="_A932AAA5-5610-412D-AFFE-BCB224CF9596" transform="matrix(1,0,0,1,148.29906542056074,71.34210526315792)"><g><path fill="none" stroke="none"/></g><g transform="matrix(0.9345794392523364,0,0,0.8771929824561403,0,0)"><g transform="matrix(1,0,0,1,0,0)"><path fill="none" stroke="#000000" id="_A932AAA5-5610-412D-AFFE-BCB224CF9596?shapeType=BORDER&amp;renderType=STROKE" paint-order="fill stroke markers" d=" M 0 0 M 16.5 1.5 L 108.5 1.5 L 108.5 43.5 L 93.5 58.5 L 1.5 58.5 L 1.5 16.5 L 16.5 1.5 Z" stroke-miterlimit="10" stroke-width="1.5" stroke-dasharray=""/></g></g><g transform="matrix(1,0,0,1,17.342201232910156,18.5)"><text fill="#000000" stroke="none" font-family="Open Sans" font-size="10pt" font-style="normal" font-weight="normal" text-decoration="normal" x="32.657798767089844" y="10.4" text-anchor="middle" dominant-baseline="alphabetic">Debt Ratio</text></g></g><g transform="matrix(1,0,0,1,148.29906542056074,71.34210526315792)"/><g id="_EC166086-05D0-4FB2-A902-EA6084A977FB" transform="matrix(1,0,0,1,392.5981308411215,601)"><g><path fill="none" stroke="none"/></g><g transform="matrix(0.9345794392523364,0,0,0.8771929824561403,0,0)"><g transform="matrix(1,0,0,1,0,0)"><path fill="none" stroke="#000000" id="_EC166086-05D0-4FB2-A902-EA6084A977FB?shapeType=BORDER&amp;renderType=STROKE" paint-order="fill stroke markers" d=" M 0 0 M 1.5 30 C 1.5 14.3 14.3 1.5 30 1.5 L 80 1.5 C 95.7 1.5 108.5 14.3 108.5 30 C 108.5 45.7 95.7 58.5 80 58.5 L 30 58.5 C 14.3 58.5 1.5 45.7 1.5 30 Z" stroke-miterlimit="10" stroke-width="1.5" stroke-dasharray=""/></g></g><g transform="matrix(1,0,0,1,34.717384338378906,18.5)"><text fill="#000000" stroke="none" font-family="Open Sans" font-size="10pt" font-style="normal" font-weight="normal" text-decoration="normal" x="15.282615661621094" y="10.4" text-anchor="middle" dominant-baseline="alphabetic">Loan</text></g></g><g transform="matrix(1,0,0,1,392.5981308411215,601)"/><g id="_49093E11-85B0-49C4-9217-2C1910D171A2" transform="matrix(1,0,0,1,782,241)"><g><path fill="none" stroke="none"/></g><g transform="matrix(1,0,0,1,0,0)"><path fill="none" stroke="#000000" id="_49093E11-85B0-49C4-9217-2C1910D171A2?shapeType=BORDER&amp;renderType=STROKE" paint-order="fill stroke markers" d=" M 0 0 L 100 0 L 100 50 L 0 50 L 0 0 Z Z" stroke-miterlimit="10" stroke-width="1.5" stroke-dasharray=""/></g><g transform="matrix(1,0,0,1,10.699981689453125,12)"><text fill="#000000" stroke="none" font-family="Open Sans" font-size="10pt" font-style="normal" font-weight="normal" text-decoration="normal" x="39.300018310546875" y="10.4" text-anchor="middle" dominant-baseline="alphabetic">Credit Score </text><text fill="#000000" stroke="none" font-family="Open Sans" font-size="10pt" font-style="normal" font-weight="normal" text-decoration="normal" x="39.300018310546875" y="23.400000000000002" text-anchor="middle" dominant-baseline="alphabetic">      Check      </text></g></g><g transform="matrix(1,0,0,1,782,241)"/><g id="_EB525D74-7914-4612-A887-13C4372EE04A" transform="matrix(1,0,0,1,548,241)"><g><path fill="none" stroke="none"/></g><g transform="matrix(1,0,0,1,0,0)"><path fill="none" stroke="#000000" id="_EB525D74-7914-4612-A887-13C4372EE04A?shapeType=BORDER&amp;renderType=STROKE" paint-order="fill stroke markers" d=" M 0 0 L 100 0 L 100 50 L 0 50 L 0 0 Z Z" stroke-miterlimit="10" stroke-width="1.5" stroke-dasharray=""/></g><g transform="matrix(1,0,0,1,21.00012969970703,12)"><text fill="#000000" stroke="none" font-family="Open Sans" font-size="10pt" font-style="normal" font-weight="normal" text-decoration="normal" x="28.99987030029297" y="10.4" text-anchor="middle" dominant-baseline="alphabetic">Eligibility </text><text fill="#000000" stroke="none" font-family="Open Sans" font-size="10pt" font-style="normal" font-weight="normal" text-decoration="normal" x="28.99987030029297" y="23.400000000000002" text-anchor="middle" dominant-baseline="alphabetic">   Check   </text></g></g><g transform="matrix(1,0,0,1,548,241)"/><g id="_15AE1C27-F780-4A4C-954E-7E14734242E8" transform="matrix(1,0,0,1,80,241)"><g><path fill="none" stroke="none"/></g><g transform="matrix(1,0,0,1,0,0)"><path fill="none" stroke="#000000" id="_15AE1C27-F780-4A4C-954E-7E14734242E8?shapeType=BORDER&amp;renderType=STROKE" paint-order="fill stroke markers" d=" M 0 0 L 100 0 L 100 50 L 0 50 L 0 0 Z Z" stroke-miterlimit="10" stroke-width="1.5" stroke-dasharray=""/></g><g transform="matrix(1,0,0,1,6.27728271484375,12)"><text fill="#000000" stroke="none" font-family="Open Sans" font-size="10pt" font-style="normal" font-weight="normal" text-decoration="normal" x="43.72271728515625" y="10.4" text-anchor="middle" dominant-baseline="alphabetic">Loan Amount </text><text fill="#000000" stroke="none" font-family="Open Sans" font-size="10pt" font-style="normal" font-weight="normal" text-decoration="normal" x="43.72271728515625" y="23.400000000000002" text-anchor="middle" dominant-baseline="alphabetic">       Check       </text></g></g><g transform="matrix(1,0,0,1,80,241)"/><g id="_4AE9AFF0-0149-4002-941E-E96B2F136D0D" transform="matrix(1,0,0,1,325,241)"><g><path fill="none" stroke="none"/></g><g transform="matrix(1,0,0,1,0,0)"><path fill="none" stroke="#000000" id="_4AE9AFF0-0149-4002-941E-E96B2F136D0D?shapeType=BORDER&amp;renderType=STROKE" paint-order="fill stroke markers" d=" M 0 0 L 100 0 L 100 50 L 0 50 L 0 0 Z Z" stroke-miterlimit="10" stroke-width="1.5" stroke-dasharray=""/></g><g transform="matrix(1,0,0,1,15.610870361328125,12)"><text fill="#000000" stroke="none" font-family="Open Sans" font-size="10pt" font-style="normal" font-weight="normal" text-decoration="normal" x="34.389129638671875" y="10.4" text-anchor="middle" dominant-baseline="alphabetic">Debt Ratio </text><text fill="#000000" stroke="none" font-family="Open Sans" font-size="10pt" font-style="normal" font-weight="normal" text-decoration="normal" x="34.389129638671875" y="23.400000000000002" text-anchor="middle" dominant-baseline="alphabetic">    Check     </text></g></g><g transform="matrix(1,0,0,1,325,241)"/><g id="_413C9BA6-E6D8-4931-98FE-D260459F9FB2#_ADC80078-31F2-4629-AB39-1E9D53BD7329"><g><path fill="none" stroke="#000000" paint-order="fill stroke markers" d=" M 545.0729862038273 451 L 780.6193441811122 299.1283597202413" stroke-miterlimit="10" stroke-dasharray=""/></g><g transform="matrix(1,0,0,1,545.0729862038273,451)"/><g transform="matrix(0.5418906480160851,0.840449002374747,-0.840449002374747,0.5418906480160851,790.516625976653,286.79775498812626)"><path fill="#000000" stroke="#000000" paint-order="fill stroke markers" d=" M 10 15 L 0 15 L 5 0 Z" stroke-miterlimit="10" stroke-dasharray=""/></g><g transform="matrix(1,0,0,1,590.5235389529665,362.5955099762525)"/></g><g id="_413C9BA6-E6D8-4931-98FE-D260459F9FB2#_656E1718-F038-4EC9-B60D-8003542FBA61"><g><path fill="none" stroke="#000000" paint-order="fill stroke markers" d=" M 790.2142857142857 241 L 535.6578054552764 88.70125112708844" stroke-miterlimit="10" stroke-dasharray=""/></g><g transform="matrix(1,0,0,1,790.2142857142857,241)"/><g transform="matrix(0.5134167418058945,-0.8581394113041421,0.8581394113041421,0.5134167418058945,520.2186305766847,85.29069705652071)"><path fill="#000000" stroke="#000000" paint-order="fill stroke markers" d=" M 10 15 L 0 15 L 5 0 Z" stroke-miterlimit="10" stroke-dasharray=""/></g><g transform="matrix(1,0,0,1,575.8202262876449,152.4186058869586)"/></g><g id="_413C9BA6-E6D8-4931-98FE-D260459F9FB2#_22C0BCAB-4E81-4CA3-8B21-E9DB34AA3D27"><g><path fill="none" stroke="#000000" paint-order="fill stroke markers" d=" M 517.2158433466844 451 L 581.0805047374934 304.7465408223119" stroke-miterlimit="10" stroke-dasharray=""/></g><g transform="matrix(1,0,0,1,517.2158433466844,451)"/><g transform="matrix(0.9164360548207934,0.4001811557588634,-0.4001811557588634,0.9164360548207934,582.5010417997723,288.99909422120567)"><path fill="#000000" stroke="#000000" paint-order="fill stroke markers" d=" M 10 15 L 0 15 L 5 0 Z" stroke-miterlimit="10" stroke-dasharray=""/></g><g transform="matrix(1,0,0,1,526.3802038948924,366.9981884424114)"/></g><g id="_413C9BA6-E6D8-4931-98FE-D260459F9FB2#_A116B39C-6F3D-473C-8050-FD5B1D7064E8"><g><path fill="none" stroke="#000000" paint-order="fill stroke markers" d=" M 584.0714285714286 241 L 502.2291038018005 94.10351964425723" stroke-miterlimit="10" stroke-dasharray=""/></g><g transform="matrix(1,0,0,1,584.0714285714286,241)"/><g transform="matrix(0.8735679762838147,-0.4867021582152688,0.4867021582152688,0.8735679762838147,490.5607315471524,83.43351079107634)"><path fill="#000000" stroke="#000000" paint-order="fill stroke markers" d=" M 10 15 L 0 15 L 5 0 Z" stroke-miterlimit="10" stroke-dasharray=""/></g><g transform="matrix(1,0,0,1,503.6642511914096,156.1329784178473)"/></g><g id="_413C9BA6-E6D8-4931-98FE-D260459F9FB2#_04B418AA-80A2-4F49-AD00-0FD121E7E074"><g><path fill="none" stroke="#000000" paint-order="fill stroke markers" d=" M 490.6682242990654 451 L 398.58296202231503 303.7186388099807" stroke-miterlimit="10" stroke-dasharray=""/></g><g transform="matrix(1,0,0,1,490.6682242990654,451)"/><g transform="matrix(0.8479092539987119,-0.530141393387979,0.530141393387979,0.8479092539987119,386.39129485150175,293.6507069669399)"><path fill="#000000" stroke="#000000" paint-order="fill stroke markers" d=" M 10 15 L 0 15 L 5 0 Z" stroke-miterlimit="10" stroke-dasharray=""/></g><g transform="matrix(1,0,0,1,399.1099336614825,365.6985860661202)"/></g><g id="_413C9BA6-E6D8-4931-98FE-D260459F9FB2#_B37720DF-9201-4E98-95AD-AA076673624B"><g><path fill="none" stroke="#000000" paint-order="fill stroke markers" d=" M 387.6190476190476 241 L 461.6217843504222 94.39080458878624" stroke-miterlimit="10" stroke-dasharray=""/></g><g transform="matrix(1,0,0,1,387.6190476190476,241)"/><g transform="matrix(0.8927203059190827,0.4506112020353461,-0.4506112020353461,0.8927203059190827,463.917350851357,78.74694398982327)"><path fill="#000000" stroke="#000000" paint-order="fill stroke markers" d=" M 10 15 L 0 15 L 5 0 Z" stroke-miterlimit="10" stroke-dasharray=""/></g><g transform="matrix(1,0,0,1,396.54625067823844,156.49388797964653)"/></g><g id="_413C9BA6-E6D8-4931-98FE-D260459F9FB2#_C1E118FB-7C15-4961-A711-2C6FED86E048"><g><path fill="none" stroke="#000000" paint-order="fill stroke markers" d=" M 224.33689508559365 121.34210526315792 L 341.7488069496724 234.07415068950453" stroke-miterlimit="10" stroke-dasharray="4,4"/></g><g transform="matrix(1,0,0,1,224.33689508559365,121.34210526315792)"/><g transform="matrix(-0.692584931049546,0.7213363385294654,-0.7213363385294654,-0.692584931049546,352.4250949902148,237.39331830735267)"><path fill="none" stroke="#000000" paint-order="fill stroke markers" d=" M 0 10 L 5 0 L 10 10" stroke-miterlimit="10" stroke-dasharray=""/></g><g transform="matrix(1,0,0,1,231.26274439608912,173.9576892462843)"/></g><g id="_413C9BA6-E6D8-4931-98FE-D260459F9FB2#_37A6B611-59BB-45C2-8C76-A158F09D96A8"><g><path fill="none" stroke="#000000" paint-order="fill stroke markers" d=" M 429.31037492272446 601 L 326.3277723895237 407.24530739870784" stroke-miterlimit="10" stroke-dasharray=""/></g><g transform="matrix(1,0,0,1,429.31037492272446,601)"/><g transform="matrix(0.8830204932471892,-0.4693344314084475,0.4693344314084475,0.8830204932471892,314.87265345216105,396.34667215704224)"><path fill="#000000" stroke="#000000" paint-order="fill stroke markers" d=" M 10 15 L 0 15 L 5 0 Z" stroke-miterlimit="10" stroke-dasharray=""/></g><g transform="matrix(1,0,0,1,336.1958272121878,492.80665568591553)"/></g><g id="_413C9BA6-E6D8-4931-98FE-D260459F9FB2#_3F4887B8-37BA-47D4-85B1-5A2CFEF38CBD"><g><path fill="none" stroke="#000000" paint-order="fill stroke markers" d=" M 322.747572815534 344 L 349.9040239812036 303.46210912950767" stroke-miterlimit="10" stroke-dasharray=""/></g><g transform="matrix(1,0,0,1,322.747572815534,344)"/><g transform="matrix(0.8308072753005101,0.5565602135508273,-0.5565602135508273,0.8308072753005101,354.0983908079634,288.2171989322459)"><path fill="#000000" stroke="#000000" paint-order="fill stroke markers" d=" M 10 15 L 0 15 L 5 0 Z" stroke-miterlimit="10" stroke-dasharray=""/></g><g transform="matrix(1,0,0,1,331.0556455685391,311.93439786449176)"/></g><g id="_413C9BA6-E6D8-4931-98FE-D260459F9FB2#_30915FA2-3E10-4994-B20E-8B3B207BDE76"><g><path fill="none" stroke="#000000" paint-order="fill stroke markers" d=" M 469.639927310488 601 L 793.9439385311911 301.1826306287746" stroke-miterlimit="10" stroke-dasharray=""/></g><g transform="matrix(1,0,0,1,469.639927310488,601)"/><g transform="matrix(0.6788420419183054,0.7342843332961596,-0.7342843332961596,0.6788420419183054,801.563993321042,287.3285783335192)"><path fill="#000000" stroke="#000000" paint-order="fill stroke markers" d=" M 10 15 L 0 15 L 5 0 Z" stroke-miterlimit="10" stroke-dasharray=""/></g><g transform="matrix(1,0,0,1,570.6590525101277,438.6571566670384)"/></g><g id="_413C9BA6-E6D8-4931-98FE-D260459F9FB2#_204DFF59-4CA1-4B74-AB7D-A672852A282B"><g><path fill="none" stroke="#000000" paint-order="fill stroke markers" d=" M 420.889927310488 601 L 161.54290344934216 302.3260177250855" stroke-miterlimit="10" stroke-dasharray=""/></g><g transform="matrix(1,0,0,1,420.889927310488,601)"/><g transform="matrix(0.7550678483390326,-0.655646661247248,0.655646661247248,0.7550678483390326,147.9328642889383,294.27823330623625)"><path fill="#000000" stroke="#000000" paint-order="fill stroke markers" d=" M 10 15 L 0 15 L 5 0 Z" stroke-miterlimit="10" stroke-dasharray=""/></g><g transform="matrix(1,0,0,1,228.28507777922633,439.4435333875275)"/></g><g id="_413C9BA6-E6D8-4931-98FE-D260459F9FB2#_CB57695A-9823-4E12-A969-4E53AF2337A5"><g><path fill="none" stroke="#000000" paint-order="fill stroke markers" d=" M 171.78571428571428 241 L 426.3421945447236 88.70125112708844" stroke-miterlimit="10" stroke-dasharray=""/></g><g transform="matrix(1,0,0,1,171.78571428571428,241)"/><g transform="matrix(0.5134167418058962,0.858139411304141,-0.858139411304141,0.5134167418058962,436.64720200525625,76.7093029434793)"><path fill="#000000" stroke="#000000" paint-order="fill stroke markers" d=" M 10 15 L 0 15 L 5 0 Z" stroke-miterlimit="10" stroke-dasharray=""/></g><g transform="matrix(1,0,0,1,224.82022628764483,152.41860588695857)"/></g><g id="_413C9BA6-E6D8-4931-98FE-D260459F9FB2#_FE07A897-D1D0-4C3E-AB3D-2EC17F8C3789"><g><path fill="none" stroke="#000000" paint-order="fill stroke markers" d=" M 437.90381619937693 601 L 382.4625246470035 305.74235440378453" stroke-miterlimit="10" stroke-dasharray=""/></g><g transform="matrix(1,0,0,1,437.90381619937693,601)"/><g transform="matrix(0.9828236269189669,-0.18454733368392898,0.18454733368392898,0.9828236269189669,374.7801965071497,291.92273666841965)"><path fill="#000000" stroke="#000000" paint-order="fill stroke markers" d=" M 10 15 L 0 15 L 5 0 Z" stroke-miterlimit="10" stroke-dasharray=""/></g><g transform="matrix(1,0,0,1,400.1725683213577,444.1545266631607)"/></g></g></g></svg>