<svg version="1.1" xmlns="http://www.w3.org/2000/svg" xmlns:xlink="http://www.w3.org/1999/xlink" width="672" height="366" viewBox="0 0 672 366"><defs/><g transform="matrix(1,0,0,1,0,0)"><g><g><g><path fill="none" stroke="#d3d3d3" paint-order="fill stroke markers" d=" M 0 0 L 1200 0" stroke-miterlimit="10" stroke-opacity="0.8" stroke-dasharray="5"/></g><g><path fill="none" stroke="#d3d3d3" paint-order="fill stroke markers" d=" M 0 0 L 0 800" stroke-miterlimit="10" stroke-opacity="0.8" stroke-dasharray="5"/></g></g><g id="_DC2B85BC-1C14-40C6-BDE5-69C29E59A402" transform="matrix(1,0,0,1,426,265)"><g><path fill="none" stroke="none"/></g><g transform="matrix(0.9345794392523364,0,0,0.8771929824561403,0,0)"><g transform="matrix(1,0,0,1,0,0)"><path fill="none" stroke="#000000" id="_DC2B85BC-1C14-40C6-BDE5-69C29E59A402?shapeType=BORDER&amp;renderType=STROKE" paint-order="fill stroke markers" d=" M 0 0 M 1.5 30 C 1.5 14.3 14.3 1.5 30 1.5 L 80 1.5 C 95.7 1.5 108.5 14.3 108.5 30 C 108.5 45.7 95.7 58.5 80 58.5 L 30 58.5 C 14.3 58.5 1.5 45.7 1.5 30 Z" stroke-miterlimit="10" stroke-width="1.5" stroke-dasharray=""/></g></g><g transform="matrix(1,0,0,1,20.91876983642578,18.5)"><text fill="#000000" stroke="none" font-family="Open Sans" font-size="10pt" font-style="normal" font-weight="normal" text-decoration="normal" x="29.08123016357422" y="10.4" text-anchor="middle" dominant-baseline="alphabetic">Applicant</text></g></g><g id="_0A6D1569-3598-41E3-B6FD-4E20ED3E1436" transform="matrix(1,0,0,1,181,139)"><g><path fill="none" stroke="none"/></g><g transform="matrix(1,0,0,1,0,0)"><path fill="none" stroke="#000000" id="_0A6D1569-3598-41E3-B6FD-4E20ED3E1436?shapeType=BORDER&amp;renderType=STROKE" paint-order="fill stroke markers" d=" M 0 0 L 100 0 L 100 50 L 0 50 L 0 0 Z Z" stroke-miterlimit="10" stroke-width="1.5" stroke-dasharray=""/></g><g transform="matrix(1,0,0,1,10.449409484863281,18.5)"><text fill="#000000" stroke="none" font-family="Open Sans" font-size="10pt" font-style="normal" font-weight="normal" text-decoration="normal" x="39.55059051513672" y="10.4" text-anchor="middle" dominant-baseline="alphabetic">Interest Rate</text></g></g><g id="_B24B25B4-FE1F-44CA-9958-978817A6B7A8" transform="matrix(1,0,0,1,351,38)"><g><path fill="none" stroke="none"/></g><g transform="matrix(1,0,0,1,0,0)"><path fill="none" stroke="#000000" id="_B24B25B4-FE1F-44CA-9958-978817A6B7A8?shapeType=BORDER&amp;renderType=STROKE" paint-order="fill stroke markers" d=" M 0 0 L 100 0 L 100 50 L 0 50 L 0 0 Z Z" stroke-miterlimit="10" stroke-width="1.5" stroke-dasharray=""/></g><g transform="matrix(1,0,0,1,10.332237243652344,18.5)"><text fill="#000000" stroke="none" font-family="Open Sans" font-size="10pt" font-style="normal" font-weight="normal" text-decoration="normal" x="39.667762756347656" y="10.4" text-anchor="middle" dominant-baseline="alphabetic">Pre Approval</text></g></g><g id="_942C73FF-82D1-40AB-A7F2-22297DE3F687" transform="matrix(1,0,0,1,521,38)"><g><path fill="none" stroke="none"/></g><g transform="matrix(0.9345794392523364,0,0,0.8771929824561403,0,0)"><g transform="matrix(1,0,0,1,0,0)"><path fill="none" stroke="#000000" id="_942C73FF-82D1-40AB-A7F2-22297DE3F687?shapeType=BORDER&amp;renderType=STROKE" paint-order="fill stroke markers" d=" M 0 0 M 16.5 1.5 L 108.5 1.5 L 108.5 43.5 L 93.5 58.5 L 1.5 58.5 L 1.5 16.5 L 16.5 1.5 Z" stroke-miterlimit="10" stroke-width="1.5" stroke-dasharray=""/></g></g><g transform="matrix(1,0,0,1,17.342201232910156,18.5)"><text fill="#000000" stroke="none" font-family="Open Sans" font-size="10pt" font-style="normal" font-weight="normal" text-decoration="normal" x="32.657798767089844" y="10.4" text-anchor="middle" dominant-baseline="alphabetic">Debt Ratio</text></g></g><g id="_D553B76B-6297-4AD3-A7A6-671F2A078B4B" transform="matrix(1,0,0,1,292,265)"><g><path fill="none" stroke="none"/></g><g transform="matrix(0.9345794392523364,0,0,0.8771929824561403,0,0)"><g transform="matrix(1,0,0,1,0,0)"><path fill="none" stroke="#000000" id="_D553B76B-6297-4AD3-A7A6-671F2A078B4B?shapeType=BORDER&amp;renderType=STROKE" paint-order="fill stroke markers" d=" M 0 0 M 1.5 30 C 1.5 14.3 14.3 1.5 30 1.5 L 80 1.5 C 95.7 1.5 108.5 14.3 108.5 30 C 108.5 45.7 95.7 58.5 80 58.5 L 30 58.5 C 14.3 58.5 1.5 45.7 1.5 30 Z" stroke-miterlimit="10" stroke-width="1.5" stroke-dasharray=""/></g></g><g transform="matrix(1,0,0,1,34.717384338378906,18.5)"><text fill="#000000" stroke="none" font-family="Open Sans" font-size="10pt" font-style="normal" font-weight="normal" text-decoration="normal" x="15.282615661621094" y="10.4" text-anchor="middle" dominant-baseline="alphabetic">Loan</text></g></g><g id="_413C9BA6-E6D8-4931-98FE-D260459F9FB2#_22C0BCAB-4E81-4CA3-8B21-E9DB34AA3D27"><g><path fill="none" stroke="#000000" paint-order="fill stroke markers" d=" M 467.74008810572684 265 L 409.2599118942731 88" stroke-miterlimit="10" stroke-dasharray=""/></g><g transform="matrix(0.3137169240411747,0.9495165567646221,-0.9495165567646221,0.3137169240411747,467.74008810572684,265)"/><g transform="matrix(0.9495165567646221,-0.3137169240411748,0.3137169240411748,0.9495165567646221,404.51232911044997,89.56858462020587)"><path fill="#000000" stroke="#000000" paint-order="fill stroke markers" d=" M 10 15 L 0 15 L 5 0 Z" stroke-miterlimit="10" stroke-dasharray=""/></g><g transform="matrix(1,0,0,1,418.75507746191937,173.36283075958826)"/></g><g id="_413C9BA6-E6D8-4931-98FE-D260459F9FB2#_C1E118FB-7C15-4961-A711-2C6FED86E048"><g><path fill="none" stroke="#000000" paint-order="fill stroke markers" d=" M 521 63 L 451 63" stroke-miterlimit="10" stroke-dasharray="4,4"/></g><g transform="matrix(1,0,0,1,521,63)"/><g transform="matrix(-1.8369701987210297e-16,-1,1,-1.8369701987210297e-16,451,68)"><path fill="#000000" stroke="#000000" paint-order="fill stroke markers" d=" M 0 10 L 5 0 L 10 10" stroke-miterlimit="10" stroke-dasharray=""/></g><g transform="matrix(1,0,0,1,451,53)"/></g><g id="_413C9BA6-E6D8-4931-98FE-D260459F9FB2#_37A6B611-59BB-45C2-8C76-A158F09D96A8"><g><path fill="none" stroke="#000000" paint-order="fill stroke markers" d=" M 319.9761904761905 265 L 253.02380952380952 189" stroke-miterlimit="10" stroke-dasharray=""/></g><g transform="matrix(0.6610305430689967,0.7503589948350772,-0.7503589948350772,0.6610305430689967,319.9761904761905,265)"/><g transform="matrix(0.7503589948350771,-0.6610305430689968,0.6610305430689968,0.7503589948350771,249.27201454963412,192.30515271534497)"><path fill="#000000" stroke="#000000" paint-order="fill stroke markers" d=" M 10 15 L 0 15 L 5 0 Z" stroke-miterlimit="10" stroke-dasharray=""/></g><g transform="matrix(1,0,0,1,260.5273994721603,220.38969456931002)"/></g><g id="_413C9BA6-E6D8-4931-98FE-D260459F9FB2#_5B69FEDF-B17F-4BBD-8998-82853FDC7AEB"><g><path fill="none" stroke="#000000" paint-order="fill stroke markers" d=" M 273.0792079207921 139 L 358.9207920792079 88" stroke-miterlimit="10" stroke-dasharray=""/></g><g transform="matrix(-0.8597159598811583,0.510772423223512,-0.510772423223512,-0.8597159598811583,273.0792079207921,139)"/><g transform="matrix(0.5107724232235119,0.8597159598811585,-0.8597159598811585,0.5107724232235119,356.36692996309034,83.70142020059421)"><path fill="#000000" stroke="#000000" paint-order="fill stroke markers" d=" M 10 15 L 0 15 L 5 0 Z" stroke-miterlimit="10" stroke-dasharray=""/></g><g transform="matrix(1,0,0,1,278.1869321530272,104.90284040118841)"/></g><g id="_413C9BA6-E6D8-4931-98FE-D260459F9FB2#_9B392BE9-5237-4430-84A3-F7A81507FF83"><g><path fill="none" stroke="#000000" paint-order="fill stroke markers" d=" M 348.4977973568282 265 L 394.5022026431718 88" stroke-miterlimit="10" stroke-dasharray=""/></g><g transform="matrix(-0.2515539777955693,0.9678432705015964,-0.9678432705015964,-0.2515539777955693,348.4977973568282,265)"/><g transform="matrix(0.9678432705015964,0.2515539777955692,-0.2515539777955692,0.9678432705015964,389.6629862906638,86.74223011102215)"><path fill="#000000" stroke="#000000" paint-order="fill stroke markers" d=" M 10 15 L 0 15 L 5 0 Z" stroke-miterlimit="10" stroke-dasharray=""/></g><g transform="matrix(1,0,0,1,358.17623006184414,173.9844602220443)"/></g><g transform="matrix(1,0,0,1,426,265)"/><g transform="matrix(1,0,0,1,181,139)"/><g transform="matrix(1,0,0,1,351,38)"/><g transform="matrix(1,0,0,1,521,38)"/><g transform="matrix(1,0,0,1,292,265)"/></g></g></svg>